<?xml version="1.0" encoding="utf-8" standalone="no"?>
<!DOCTYPE svg PUBLIC "-//W3C//DTD SVG 1.1//EN"
  "http://www.w3.org/Graphics/SVG/1.1/DTD/svg11.dtd">
<!-- Created with matplotlib (https://matplotlib.org/) -->
<svg height="720pt" version="1.1" viewBox="0 0 1080 720" width="1080pt" xmlns="http://www.w3.org/2000/svg" xmlns:xlink="http://www.w3.org/1999/xlink">
 <defs>
  <style type="text/css">
*{stroke-linecap:butt;stroke-linejoin:round;}
  </style>
 </defs>
 <g id="figure_1">
  <g id="patch_1">
   <path d="M 0 720 
L 1080 720 
L 1080 0 
L 0 0 
z
" style="fill:#ffffff;"/>
  </g>
  <g id="axes_1">
   <g id="patch_2">
    <path d="M 135 630 
L 972 630 
L 972 86.4 
L 135 86.4 
z
" style="fill:#ffffff;"/>
   </g>
   <g id="matplotlib.axis_1">
    <g id="xtick_1">
     <g id="line2d_1">
      <defs>
       <path d="M 0 0 
L 0 3.5 
" id="m92e4eb9938" style="stroke:#000000;stroke-width:0.8;"/>
      </defs>
      <g>
       <use style="stroke:#000000;stroke-width:0.8;" x="173.045455" xlink:href="#m92e4eb9938" y="630"/>
      </g>
     </g>
     <g id="text_1">
      <!-- 0 -->
      <defs>
       <path d="M 31.78125 66.40625 
Q 24.171875 66.40625 20.328125 58.90625 
Q 16.5 51.421875 16.5 36.375 
Q 16.5 21.390625 20.328125 13.890625 
Q 24.171875 6.390625 31.78125 6.390625 
Q 39.453125 6.390625 43.28125 13.890625 
Q 47.125 21.390625 47.125 36.375 
Q 47.125 51.421875 43.28125 58.90625 
Q 39.453125 66.40625 31.78125 66.40625 
z
M 31.78125 74.21875 
Q 44.046875 74.21875 50.515625 64.515625 
Q 56.984375 54.828125 56.984375 36.375 
Q 56.984375 17.96875 50.515625 8.265625 
Q 44.046875 -1.421875 31.78125 -1.421875 
Q 19.53125 -1.421875 13.0625 8.265625 
Q 6.59375 17.96875 6.59375 36.375 
Q 6.59375 54.828125 13.0625 64.515625 
Q 19.53125 74.21875 31.78125 74.21875 
z
" id="DejaVuSans-48"/>
      </defs>
      <g transform="translate(167.319205 650.677187)scale(0.18 -0.18)">
       <use xlink:href="#DejaVuSans-48"/>
      </g>
     </g>
    </g>
    <g id="xtick_2">
     <g id="line2d_2">
      <g>
       <use style="stroke:#000000;stroke-width:0.8;" x="325.257715" xlink:href="#m92e4eb9938" y="630"/>
      </g>
     </g>
     <g id="text_2">
      <!-- 1000 -->
      <defs>
       <path d="M 12.40625 8.296875 
L 28.515625 8.296875 
L 28.515625 63.921875 
L 10.984375 60.40625 
L 10.984375 69.390625 
L 28.421875 72.90625 
L 38.28125 72.90625 
L 38.28125 8.296875 
L 54.390625 8.296875 
L 54.390625 0 
L 12.40625 0 
z
" id="DejaVuSans-49"/>
      </defs>
      <g transform="translate(302.352715 650.677187)scale(0.18 -0.18)">
       <use xlink:href="#DejaVuSans-49"/>
       <use x="63.623047" xlink:href="#DejaVuSans-48"/>
       <use x="127.246094" xlink:href="#DejaVuSans-48"/>
       <use x="190.869141" xlink:href="#DejaVuSans-48"/>
      </g>
     </g>
    </g>
    <g id="xtick_3">
     <g id="line2d_3">
      <g>
       <use style="stroke:#000000;stroke-width:0.8;" x="477.469976" xlink:href="#m92e4eb9938" y="630"/>
      </g>
     </g>
     <g id="text_3">
      <!-- 2000 -->
      <defs>
       <path d="M 19.1875 8.296875 
L 53.609375 8.296875 
L 53.609375 0 
L 7.328125 0 
L 7.328125 8.296875 
Q 12.9375 14.109375 22.625 23.890625 
Q 32.328125 33.6875 34.8125 36.53125 
Q 39.546875 41.84375 41.421875 45.53125 
Q 43.3125 49.21875 43.3125 52.78125 
Q 43.3125 58.59375 39.234375 62.25 
Q 35.15625 65.921875 28.609375 65.921875 
Q 23.96875 65.921875 18.8125 64.3125 
Q 13.671875 62.703125 7.8125 59.421875 
L 7.8125 69.390625 
Q 13.765625 71.78125 18.9375 73 
Q 24.125 74.21875 28.421875 74.21875 
Q 39.75 74.21875 46.484375 68.546875 
Q 53.21875 62.890625 53.21875 53.421875 
Q 53.21875 48.921875 51.53125 44.890625 
Q 49.859375 40.875 45.40625 35.40625 
Q 44.1875 33.984375 37.640625 27.21875 
Q 31.109375 20.453125 19.1875 8.296875 
z
" id="DejaVuSans-50"/>
      </defs>
      <g transform="translate(454.564976 650.677187)scale(0.18 -0.18)">
       <use xlink:href="#DejaVuSans-50"/>
       <use x="63.623047" xlink:href="#DejaVuSans-48"/>
       <use x="127.246094" xlink:href="#DejaVuSans-48"/>
       <use x="190.869141" xlink:href="#DejaVuSans-48"/>
      </g>
     </g>
    </g>
    <g id="xtick_4">
     <g id="line2d_4">
      <g>
       <use style="stroke:#000000;stroke-width:0.8;" x="629.682236" xlink:href="#m92e4eb9938" y="630"/>
      </g>
     </g>
     <g id="text_4">
      <!-- 3000 -->
      <defs>
       <path d="M 40.578125 39.3125 
Q 47.65625 37.796875 51.625 33 
Q 55.609375 28.21875 55.609375 21.1875 
Q 55.609375 10.40625 48.1875 4.484375 
Q 40.765625 -1.421875 27.09375 -1.421875 
Q 22.515625 -1.421875 17.65625 -0.515625 
Q 12.796875 0.390625 7.625 2.203125 
L 7.625 11.71875 
Q 11.71875 9.328125 16.59375 8.109375 
Q 21.484375 6.890625 26.8125 6.890625 
Q 36.078125 6.890625 40.9375 10.546875 
Q 45.796875 14.203125 45.796875 21.1875 
Q 45.796875 27.640625 41.28125 31.265625 
Q 36.765625 34.90625 28.71875 34.90625 
L 20.21875 34.90625 
L 20.21875 43.015625 
L 29.109375 43.015625 
Q 36.375 43.015625 40.234375 45.921875 
Q 44.09375 48.828125 44.09375 54.296875 
Q 44.09375 59.90625 40.109375 62.90625 
Q 36.140625 65.921875 28.71875 65.921875 
Q 24.65625 65.921875 20.015625 65.03125 
Q 15.375 64.15625 9.8125 62.3125 
L 9.8125 71.09375 
Q 15.4375 72.65625 20.34375 73.4375 
Q 25.25 74.21875 29.59375 74.21875 
Q 40.828125 74.21875 47.359375 69.109375 
Q 53.90625 64.015625 53.90625 55.328125 
Q 53.90625 49.265625 50.4375 45.09375 
Q 46.96875 40.921875 40.578125 39.3125 
z
" id="DejaVuSans-51"/>
      </defs>
      <g transform="translate(606.777236 650.677187)scale(0.18 -0.18)">
       <use xlink:href="#DejaVuSans-51"/>
       <use x="63.623047" xlink:href="#DejaVuSans-48"/>
       <use x="127.246094" xlink:href="#DejaVuSans-48"/>
       <use x="190.869141" xlink:href="#DejaVuSans-48"/>
      </g>
     </g>
    </g>
    <g id="xtick_5">
     <g id="line2d_5">
      <g>
       <use style="stroke:#000000;stroke-width:0.8;" x="781.894497" xlink:href="#m92e4eb9938" y="630"/>
      </g>
     </g>
     <g id="text_5">
      <!-- 4000 -->
      <defs>
       <path d="M 37.796875 64.3125 
L 12.890625 25.390625 
L 37.796875 25.390625 
z
M 35.203125 72.90625 
L 47.609375 72.90625 
L 47.609375 25.390625 
L 58.015625 25.390625 
L 58.015625 17.1875 
L 47.609375 17.1875 
L 47.609375 0 
L 37.796875 0 
L 37.796875 17.1875 
L 4.890625 17.1875 
L 4.890625 26.703125 
z
" id="DejaVuSans-52"/>
      </defs>
      <g transform="translate(758.989497 650.677187)scale(0.18 -0.18)">
       <use xlink:href="#DejaVuSans-52"/>
       <use x="63.623047" xlink:href="#DejaVuSans-48"/>
       <use x="127.246094" xlink:href="#DejaVuSans-48"/>
       <use x="190.869141" xlink:href="#DejaVuSans-48"/>
      </g>
     </g>
    </g>
    <g id="xtick_6">
     <g id="line2d_6">
      <g>
       <use style="stroke:#000000;stroke-width:0.8;" x="934.106758" xlink:href="#m92e4eb9938" y="630"/>
      </g>
     </g>
     <g id="text_6">
      <!-- 5000 -->
      <defs>
       <path d="M 10.796875 72.90625 
L 49.515625 72.90625 
L 49.515625 64.59375 
L 19.828125 64.59375 
L 19.828125 46.734375 
Q 21.96875 47.46875 24.109375 47.828125 
Q 26.265625 48.1875 28.421875 48.1875 
Q 40.625 48.1875 47.75 41.5 
Q 54.890625 34.8125 54.890625 23.390625 
Q 54.890625 11.625 47.5625 5.09375 
Q 40.234375 -1.421875 26.90625 -1.421875 
Q 22.3125 -1.421875 17.546875 -0.640625 
Q 12.796875 0.140625 7.71875 1.703125 
L 7.71875 11.625 
Q 12.109375 9.234375 16.796875 8.0625 
Q 21.484375 6.890625 26.703125 6.890625 
Q 35.15625 6.890625 40.078125 11.328125 
Q 45.015625 15.765625 45.015625 23.390625 
Q 45.015625 31 40.078125 35.4375 
Q 35.15625 39.890625 26.703125 39.890625 
Q 22.75 39.890625 18.8125 39.015625 
Q 14.890625 38.140625 10.796875 36.28125 
z
" id="DejaVuSans-53"/>
      </defs>
      <g transform="translate(911.201758 650.677187)scale(0.18 -0.18)">
       <use xlink:href="#DejaVuSans-53"/>
       <use x="63.623047" xlink:href="#DejaVuSans-48"/>
       <use x="127.246094" xlink:href="#DejaVuSans-48"/>
       <use x="190.869141" xlink:href="#DejaVuSans-48"/>
      </g>
     </g>
    </g>
    <g id="text_7">
     <!-- iteration -->
     <defs>
      <path d="M 9.421875 54.6875 
L 18.40625 54.6875 
L 18.40625 0 
L 9.421875 0 
z
M 9.421875 75.984375 
L 18.40625 75.984375 
L 18.40625 64.59375 
L 9.421875 64.59375 
z
" id="DejaVuSans-105"/>
      <path d="M 18.3125 70.21875 
L 18.3125 54.6875 
L 36.8125 54.6875 
L 36.8125 47.703125 
L 18.3125 47.703125 
L 18.3125 18.015625 
Q 18.3125 11.328125 20.140625 9.421875 
Q 21.96875 7.515625 27.59375 7.515625 
L 36.8125 7.515625 
L 36.8125 0 
L 27.59375 0 
Q 17.1875 0 13.234375 3.875 
Q 9.28125 7.765625 9.28125 18.015625 
L 9.28125 47.703125 
L 2.6875 47.703125 
L 2.6875 54.6875 
L 9.28125 54.6875 
L 9.28125 70.21875 
z
" id="DejaVuSans-116"/>
      <path d="M 56.203125 29.59375 
L 56.203125 25.203125 
L 14.890625 25.203125 
Q 15.484375 15.921875 20.484375 11.0625 
Q 25.484375 6.203125 34.421875 6.203125 
Q 39.59375 6.203125 44.453125 7.46875 
Q 49.3125 8.734375 54.109375 11.28125 
L 54.109375 2.78125 
Q 49.265625 0.734375 44.1875 -0.34375 
Q 39.109375 -1.421875 33.890625 -1.421875 
Q 20.796875 -1.421875 13.15625 6.1875 
Q 5.515625 13.8125 5.515625 26.8125 
Q 5.515625 40.234375 12.765625 48.109375 
Q 20.015625 56 32.328125 56 
Q 43.359375 56 49.78125 48.890625 
Q 56.203125 41.796875 56.203125 29.59375 
z
M 47.21875 32.234375 
Q 47.125 39.59375 43.09375 43.984375 
Q 39.0625 48.390625 32.421875 48.390625 
Q 24.90625 48.390625 20.390625 44.140625 
Q 15.875 39.890625 15.1875 32.171875 
z
" id="DejaVuSans-101"/>
      <path d="M 41.109375 46.296875 
Q 39.59375 47.171875 37.8125 47.578125 
Q 36.03125 48 33.890625 48 
Q 26.265625 48 22.1875 43.046875 
Q 18.109375 38.09375 18.109375 28.8125 
L 18.109375 0 
L 9.078125 0 
L 9.078125 54.6875 
L 18.109375 54.6875 
L 18.109375 46.1875 
Q 20.953125 51.171875 25.484375 53.578125 
Q 30.03125 56 36.53125 56 
Q 37.453125 56 38.578125 55.875 
Q 39.703125 55.765625 41.0625 55.515625 
z
" id="DejaVuSans-114"/>
      <path d="M 34.28125 27.484375 
Q 23.390625 27.484375 19.1875 25 
Q 14.984375 22.515625 14.984375 16.5 
Q 14.984375 11.71875 18.140625 8.90625 
Q 21.296875 6.109375 26.703125 6.109375 
Q 34.1875 6.109375 38.703125 11.40625 
Q 43.21875 16.703125 43.21875 25.484375 
L 43.21875 27.484375 
z
M 52.203125 31.203125 
L 52.203125 0 
L 43.21875 0 
L 43.21875 8.296875 
Q 40.140625 3.328125 35.546875 0.953125 
Q 30.953125 -1.421875 24.3125 -1.421875 
Q 15.921875 -1.421875 10.953125 3.296875 
Q 6 8.015625 6 15.921875 
Q 6 25.140625 12.171875 29.828125 
Q 18.359375 34.515625 30.609375 34.515625 
L 43.21875 34.515625 
L 43.21875 35.40625 
Q 43.21875 41.609375 39.140625 45 
Q 35.0625 48.390625 27.6875 48.390625 
Q 23 48.390625 18.546875 47.265625 
Q 14.109375 46.140625 10.015625 43.890625 
L 10.015625 52.203125 
Q 14.9375 54.109375 19.578125 55.046875 
Q 24.21875 56 28.609375 56 
Q 40.484375 56 46.34375 49.84375 
Q 52.203125 43.703125 52.203125 31.203125 
z
" id="DejaVuSans-97"/>
      <path d="M 30.609375 48.390625 
Q 23.390625 48.390625 19.1875 42.75 
Q 14.984375 37.109375 14.984375 27.296875 
Q 14.984375 17.484375 19.15625 11.84375 
Q 23.34375 6.203125 30.609375 6.203125 
Q 37.796875 6.203125 41.984375 11.859375 
Q 46.1875 17.53125 46.1875 27.296875 
Q 46.1875 37.015625 41.984375 42.703125 
Q 37.796875 48.390625 30.609375 48.390625 
z
M 30.609375 56 
Q 42.328125 56 49.015625 48.375 
Q 55.71875 40.765625 55.71875 27.296875 
Q 55.71875 13.875 49.015625 6.21875 
Q 42.328125 -1.421875 30.609375 -1.421875 
Q 18.84375 -1.421875 12.171875 6.21875 
Q 5.515625 13.875 5.515625 27.296875 
Q 5.515625 40.765625 12.171875 48.375 
Q 18.84375 56 30.609375 56 
z
" id="DejaVuSans-111"/>
      <path d="M 54.890625 33.015625 
L 54.890625 0 
L 45.90625 0 
L 45.90625 32.71875 
Q 45.90625 40.484375 42.875 44.328125 
Q 39.84375 48.1875 33.796875 48.1875 
Q 26.515625 48.1875 22.3125 43.546875 
Q 18.109375 38.921875 18.109375 30.90625 
L 18.109375 0 
L 9.078125 0 
L 9.078125 54.6875 
L 18.109375 54.6875 
L 18.109375 46.1875 
Q 21.34375 51.125 25.703125 53.5625 
Q 30.078125 56 35.796875 56 
Q 45.21875 56 50.046875 50.171875 
Q 54.890625 44.34375 54.890625 33.015625 
z
" id="DejaVuSans-110"/>
     </defs>
     <g transform="translate(507.030156 675.137187)scale(0.22 -0.22)">
      <use xlink:href="#DejaVuSans-105"/>
      <use x="27.783203" xlink:href="#DejaVuSans-116"/>
      <use x="66.992188" xlink:href="#DejaVuSans-101"/>
      <use x="128.515625" xlink:href="#DejaVuSans-114"/>
      <use x="169.628906" xlink:href="#DejaVuSans-97"/>
      <use x="230.908203" xlink:href="#DejaVuSans-116"/>
      <use x="270.117188" xlink:href="#DejaVuSans-105"/>
      <use x="297.900391" xlink:href="#DejaVuSans-111"/>
      <use x="359.082031" xlink:href="#DejaVuSans-110"/>
     </g>
    </g>
   </g>
   <g id="matplotlib.axis_2">
    <g id="ytick_1">
     <g id="line2d_7">
      <defs>
       <path d="M 0 0 
L -3.5 0 
" id="m114909c612" style="stroke:#000000;stroke-width:0.8;"/>
      </defs>
      <g>
       <use style="stroke:#000000;stroke-width:0.8;" x="135" xlink:href="#m114909c612" y="573.241691"/>
      </g>
     </g>
     <g id="text_8">
      <!-- $\mathdefault{10^{-3}}$ -->
      <defs>
       <path d="M 10.59375 35.5 
L 73.1875 35.5 
L 73.1875 27.203125 
L 10.59375 27.203125 
z
" id="DejaVuSans-8722"/>
      </defs>
      <g transform="translate(85.7 580.080285)scale(0.18 -0.18)">
       <use transform="translate(0 0.765625)" xlink:href="#DejaVuSans-49"/>
       <use transform="translate(63.623047 0.765625)" xlink:href="#DejaVuSans-48"/>
       <use transform="translate(128.203125 39.046875)scale(0.7)" xlink:href="#DejaVuSans-8722"/>
       <use transform="translate(186.855469 39.046875)scale(0.7)" xlink:href="#DejaVuSans-51"/>
      </g>
     </g>
    </g>
    <g id="ytick_2">
     <g id="line2d_8">
      <g>
       <use style="stroke:#000000;stroke-width:0.8;" x="135" xlink:href="#m114909c612" y="445.791329"/>
      </g>
     </g>
     <g id="text_9">
      <!-- $\mathdefault{10^{-2}}$ -->
      <g transform="translate(85.7 452.629923)scale(0.18 -0.18)">
       <use transform="translate(0 0.765625)" xlink:href="#DejaVuSans-49"/>
       <use transform="translate(63.623047 0.765625)" xlink:href="#DejaVuSans-48"/>
       <use transform="translate(128.203125 39.046875)scale(0.7)" xlink:href="#DejaVuSans-8722"/>
       <use transform="translate(186.855469 39.046875)scale(0.7)" xlink:href="#DejaVuSans-50"/>
      </g>
     </g>
    </g>
    <g id="ytick_3">
     <g id="line2d_9">
      <g>
       <use style="stroke:#000000;stroke-width:0.8;" x="135" xlink:href="#m114909c612" y="318.340968"/>
      </g>
     </g>
     <g id="text_10">
      <!-- $\mathdefault{10^{-1}}$ -->
      <g transform="translate(85.7 325.179561)scale(0.18 -0.18)">
       <use transform="translate(0 0.684375)" xlink:href="#DejaVuSans-49"/>
       <use transform="translate(63.623047 0.684375)" xlink:href="#DejaVuSans-48"/>
       <use transform="translate(128.203125 38.965625)scale(0.7)" xlink:href="#DejaVuSans-8722"/>
       <use transform="translate(186.855469 38.965625)scale(0.7)" xlink:href="#DejaVuSans-49"/>
      </g>
     </g>
    </g>
    <g id="ytick_4">
     <g id="line2d_10">
      <g>
       <use style="stroke:#000000;stroke-width:0.8;" x="135" xlink:href="#m114909c612" y="190.890606"/>
      </g>
     </g>
     <g id="text_11">
      <!-- $\mathdefault{10^{0}}$ -->
      <g transform="translate(96.32 197.7292)scale(0.18 -0.18)">
       <use transform="translate(0 0.765625)" xlink:href="#DejaVuSans-49"/>
       <use transform="translate(63.623047 0.765625)" xlink:href="#DejaVuSans-48"/>
       <use transform="translate(128.203125 39.046875)scale(0.7)" xlink:href="#DejaVuSans-48"/>
      </g>
     </g>
    </g>
    <g id="ytick_5">
     <g id="line2d_11">
      <defs>
       <path d="M 0 0 
L -2 0 
" id="mecf9c158bb" style="stroke:#000000;stroke-width:0.6;"/>
      </defs>
      <g>
       <use style="stroke:#000000;stroke-width:0.6;" x="135" xlink:href="#mecf9c158bb" y="623.959289"/>
      </g>
     </g>
    </g>
    <g id="ytick_6">
     <g id="line2d_12">
      <g>
       <use style="stroke:#000000;stroke-width:0.6;" x="135" xlink:href="#mecf9c158bb" y="611.608073"/>
      </g>
     </g>
    </g>
    <g id="ytick_7">
     <g id="line2d_13">
      <g>
       <use style="stroke:#000000;stroke-width:0.6;" x="135" xlink:href="#mecf9c158bb" y="601.516395"/>
      </g>
     </g>
    </g>
    <g id="ytick_8">
     <g id="line2d_14">
      <g>
       <use style="stroke:#000000;stroke-width:0.6;" x="135" xlink:href="#mecf9c158bb" y="592.984002"/>
      </g>
     </g>
    </g>
    <g id="ytick_9">
     <g id="line2d_15">
      <g>
       <use style="stroke:#000000;stroke-width:0.6;" x="135" xlink:href="#mecf9c158bb" y="585.592907"/>
      </g>
     </g>
    </g>
    <g id="ytick_10">
     <g id="line2d_16">
      <g>
       <use style="stroke:#000000;stroke-width:0.6;" x="135" xlink:href="#mecf9c158bb" y="579.0735"/>
      </g>
     </g>
    </g>
    <g id="ytick_11">
     <g id="line2d_17">
      <g>
       <use style="stroke:#000000;stroke-width:0.6;" x="135" xlink:href="#mecf9c158bb" y="534.875309"/>
      </g>
     </g>
    </g>
    <g id="ytick_12">
     <g id="line2d_18">
      <g>
       <use style="stroke:#000000;stroke-width:0.6;" x="135" xlink:href="#mecf9c158bb" y="512.432415"/>
      </g>
     </g>
    </g>
    <g id="ytick_13">
     <g id="line2d_19">
      <g>
       <use style="stroke:#000000;stroke-width:0.6;" x="135" xlink:href="#mecf9c158bb" y="496.508927"/>
      </g>
     </g>
    </g>
    <g id="ytick_14">
     <g id="line2d_20">
      <g>
       <use style="stroke:#000000;stroke-width:0.6;" x="135" xlink:href="#mecf9c158bb" y="484.157711"/>
      </g>
     </g>
    </g>
    <g id="ytick_15">
     <g id="line2d_21">
      <g>
       <use style="stroke:#000000;stroke-width:0.6;" x="135" xlink:href="#mecf9c158bb" y="474.066033"/>
      </g>
     </g>
    </g>
    <g id="ytick_16">
     <g id="line2d_22">
      <g>
       <use style="stroke:#000000;stroke-width:0.6;" x="135" xlink:href="#mecf9c158bb" y="465.53364"/>
      </g>
     </g>
    </g>
    <g id="ytick_17">
     <g id="line2d_23">
      <g>
       <use style="stroke:#000000;stroke-width:0.6;" x="135" xlink:href="#mecf9c158bb" y="458.142546"/>
      </g>
     </g>
    </g>
    <g id="ytick_18">
     <g id="line2d_24">
      <g>
       <use style="stroke:#000000;stroke-width:0.6;" x="135" xlink:href="#mecf9c158bb" y="451.623138"/>
      </g>
     </g>
    </g>
    <g id="ytick_19">
     <g id="line2d_25">
      <g>
       <use style="stroke:#000000;stroke-width:0.6;" x="135" xlink:href="#mecf9c158bb" y="407.424948"/>
      </g>
     </g>
    </g>
    <g id="ytick_20">
     <g id="line2d_26">
      <g>
       <use style="stroke:#000000;stroke-width:0.6;" x="135" xlink:href="#mecf9c158bb" y="384.982053"/>
      </g>
     </g>
    </g>
    <g id="ytick_21">
     <g id="line2d_27">
      <g>
       <use style="stroke:#000000;stroke-width:0.6;" x="135" xlink:href="#mecf9c158bb" y="369.058566"/>
      </g>
     </g>
    </g>
    <g id="ytick_22">
     <g id="line2d_28">
      <g>
       <use style="stroke:#000000;stroke-width:0.6;" x="135" xlink:href="#mecf9c158bb" y="356.707349"/>
      </g>
     </g>
    </g>
    <g id="ytick_23">
     <g id="line2d_29">
      <g>
       <use style="stroke:#000000;stroke-width:0.6;" x="135" xlink:href="#mecf9c158bb" y="346.615671"/>
      </g>
     </g>
    </g>
    <g id="ytick_24">
     <g id="line2d_30">
      <g>
       <use style="stroke:#000000;stroke-width:0.6;" x="135" xlink:href="#mecf9c158bb" y="338.083278"/>
      </g>
     </g>
    </g>
    <g id="ytick_25">
     <g id="line2d_31">
      <g>
       <use style="stroke:#000000;stroke-width:0.6;" x="135" xlink:href="#mecf9c158bb" y="330.692184"/>
      </g>
     </g>
    </g>
    <g id="ytick_26">
     <g id="line2d_32">
      <g>
       <use style="stroke:#000000;stroke-width:0.6;" x="135" xlink:href="#mecf9c158bb" y="324.172776"/>
      </g>
     </g>
    </g>
    <g id="ytick_27">
     <g id="line2d_33">
      <g>
       <use style="stroke:#000000;stroke-width:0.6;" x="135" xlink:href="#mecf9c158bb" y="279.974586"/>
      </g>
     </g>
    </g>
    <g id="ytick_28">
     <g id="line2d_34">
      <g>
       <use style="stroke:#000000;stroke-width:0.6;" x="135" xlink:href="#mecf9c158bb" y="257.531691"/>
      </g>
     </g>
    </g>
    <g id="ytick_29">
     <g id="line2d_35">
      <g>
       <use style="stroke:#000000;stroke-width:0.6;" x="135" xlink:href="#mecf9c158bb" y="241.608204"/>
      </g>
     </g>
    </g>
    <g id="ytick_30">
     <g id="line2d_36">
      <g>
       <use style="stroke:#000000;stroke-width:0.6;" x="135" xlink:href="#mecf9c158bb" y="229.256988"/>
      </g>
     </g>
    </g>
    <g id="ytick_31">
     <g id="line2d_37">
      <g>
       <use style="stroke:#000000;stroke-width:0.6;" x="135" xlink:href="#mecf9c158bb" y="219.165309"/>
      </g>
     </g>
    </g>
    <g id="ytick_32">
     <g id="line2d_38">
      <g>
       <use style="stroke:#000000;stroke-width:0.6;" x="135" xlink:href="#mecf9c158bb" y="210.632917"/>
      </g>
     </g>
    </g>
    <g id="ytick_33">
     <g id="line2d_39">
      <g>
       <use style="stroke:#000000;stroke-width:0.6;" x="135" xlink:href="#mecf9c158bb" y="203.241822"/>
      </g>
     </g>
    </g>
    <g id="ytick_34">
     <g id="line2d_40">
      <g>
       <use style="stroke:#000000;stroke-width:0.6;" x="135" xlink:href="#mecf9c158bb" y="196.722415"/>
      </g>
     </g>
    </g>
    <g id="ytick_35">
     <g id="line2d_41">
      <g>
       <use style="stroke:#000000;stroke-width:0.6;" x="135" xlink:href="#mecf9c158bb" y="152.524224"/>
      </g>
     </g>
    </g>
    <g id="ytick_36">
     <g id="line2d_42">
      <g>
       <use style="stroke:#000000;stroke-width:0.6;" x="135" xlink:href="#mecf9c158bb" y="130.081329"/>
      </g>
     </g>
    </g>
    <g id="ytick_37">
     <g id="line2d_43">
      <g>
       <use style="stroke:#000000;stroke-width:0.6;" x="135" xlink:href="#mecf9c158bb" y="114.157842"/>
      </g>
     </g>
    </g>
    <g id="ytick_38">
     <g id="line2d_44">
      <g>
       <use style="stroke:#000000;stroke-width:0.6;" x="135" xlink:href="#mecf9c158bb" y="101.806626"/>
      </g>
     </g>
    </g>
    <g id="ytick_39">
     <g id="line2d_45">
      <g>
       <use style="stroke:#000000;stroke-width:0.6;" x="135" xlink:href="#mecf9c158bb" y="91.714947"/>
      </g>
     </g>
    </g>
    <g id="text_12">
     <!-- error -->
     <g transform="translate(77.124688 385.26)rotate(-90)scale(0.22 -0.22)">
      <use xlink:href="#DejaVuSans-101"/>
      <use x="61.523438" xlink:href="#DejaVuSans-114"/>
      <use x="102.621094" xlink:href="#DejaVuSans-114"/>
      <use x="143.703125" xlink:href="#DejaVuSans-111"/>
      <use x="204.884766" xlink:href="#DejaVuSans-114"/>
     </g>
    </g>
   </g>
   <g id="line2d_46">
    <path clip-path="url(#pda6af0d51c)" d="M 173.045455 133.253713 
L 173.958728 137.101761 
L 180.199431 157.569422 
L 185.831284 175.295315 
L 190.854289 190.379761 
L 195.420657 203.402994 
L 199.530388 214.467158 
L 203.183482 223.700348 
L 206.532152 231.590244 
L 209.576397 238.211621 
L 212.316218 243.638423 
L 214.751614 247.979271 
L 217.339222 252.119653 
L 220.079043 256.079506 
L 222.971076 259.879948 
L 226.167534 263.716359 
L 229.668416 267.565938 
L 233.625934 271.558724 
L 237.583453 275.258791 
L 242.454245 279.501325 
L 248.238311 284.204188 
L 253.870165 288.551536 
L 261.024141 293.831856 
L 270.461301 300.543561 
L 285.225891 310.731028 
L 317.190465 332.358709 
L 328.454173 339.90745 
L 371.073606 368.381684 
L 387.664742 379.386738 
L 406.234638 391.656259 
L 411.714279 395.31159 
L 465.292995 430.145334 
L 476.556702 437.17948 
L 480.209797 439.38857 
L 484.319528 441.901485 
L 487.972622 444.233464 
L 489.951381 445.486855 
L 491.321292 446.335343 
L 496.192084 449.272886 
L 496.953145 449.748125 
L 498.018631 450.384232 
L 499.388541 451.267411 
L 501.671725 452.656569 
L 502.280574 453.024479 
L 503.802697 453.951647 
L 506.542518 455.599095 
L 510.956673 458.335792 
L 512.326583 459.146176 
L 514.457555 460.448426 
L 517.654013 462.347475 
L 519.937197 463.60556 
L 522.068168 464.905805 
L 525.721262 467.013048 
L 530.135418 469.592708 
L 531.048692 470.180464 
L 533.179663 471.379872 
L 534.092937 471.933402 
L 538.507092 474.387014 
L 539.420366 474.846948 
L 542.616823 476.675815 
L 545.204432 478.026195 
L 546.269918 478.657277 
L 548.096465 479.650394 
L 552.967257 482.197585 
L 553.728318 482.572729 
L 556.163715 483.32078 
L 561.795568 484.927483 
L 563.622115 485.52309 
L 580.061039 489.522973 
L 580.974313 489.70866 
L 584.77962 490.639517 
L 585.388469 490.781989 
L 586.301742 491.01385 
L 594.521204 493.033977 
L 615.830921 497.820754 
L 616.896407 498.107283 
L 618.418529 498.512644 
L 621.462774 499.201986 
L 625.420293 500.100987 
L 627.855689 500.699583 
L 629.530024 501.090081 
L 630.747722 501.296136 
L 639.423821 503.471752 
L 643.685764 504.21669 
L 645.360099 504.593038 
L 646.425585 504.779471 
L 647.186646 505.019733 
L 655.862745 506.991967 
L 659.51584 507.952288 
L 660.733538 508.153023 
L 662.712297 508.532862 
L 663.625571 508.716666 
L 664.691056 508.960013 
L 665.60433 509.073477 
L 666.822028 509.23015 
L 667.430877 509.257777 
L 671.083971 509.829049 
L 671.69282 509.990798 
L 674.737066 510.541702 
L 675.802551 510.758624 
L 677.02025 510.922333 
L 678.39016 511.130089 
L 679.151221 511.274805 
L 679.912282 511.34676 
L 680.977768 511.533531 
L 683.10874 512.061877 
L 684.47865 512.28992 
L 686.914046 512.553495 
L 688.131745 512.63983 
L 689.958292 512.965506 
L 690.414928 513.079257 
L 693.002537 513.273137 
L 702.135273 514.96544 
L 705.027305 515.540234 
L 706.092791 515.804766 
L 709.137036 516.409703 
L 709.898098 516.627429 
L 710.811371 516.7301 
L 711.572433 516.867372 
L 712.333494 517.009947 
L 716.1388 517.36498 
L 717.965348 517.423485 
L 718.878621 517.63221 
L 719.944107 517.701327 
L 721.314017 517.828761 
L 722.379503 517.932036 
L 724.662687 518.190291 
L 726.489234 518.228448 
L 728.467994 518.411523 
L 729.229055 518.335135 
L 731.968876 518.420629 
L 732.577725 518.457355 
L 733.186574 518.507898 
L 734.25206 518.620237 
L 736.078607 518.770727 
L 736.839668 518.78737 
L 737.296305 518.859114 
L 737.905154 518.802926 
L 741.253823 519.104936 
L 742.319309 519.300388 
L 743.080371 519.358655 
L 743.537007 519.46154 
L 744.298069 519.597733 
L 747.494526 519.866278 
L 750.843196 520.525593 
L 752.669743 521.022598 
L 753.583017 521.101886 
L 754.648502 521.274981 
L 756.627262 521.539442 
L 758.149384 521.723455 
L 759.519295 521.869851 
L 764.390087 522.308279 
L 764.846724 522.390996 
L 765.455573 522.409853 
L 768.499818 522.64857 
L 770.174153 522.718511 
L 770.783002 522.890814 
L 771.239639 522.972594 
L 772.0007 523.130002 
L 773.37061 523.288287 
L 774.740521 523.514575 
L 776.871492 524.000327 
L 778.089191 524.071189 
L 778.850252 524.122299 
L 780.676799 524.059514 
L 781.133436 524.092586 
L 781.894497 524.080686 
L 783.873256 524.128663 
L 784.482106 524.216095 
L 788.896261 524.411344 
L 790.113959 524.33956 
L 791.940506 524.4132 
L 792.244931 524.420149 
L 797.420148 525.23629 
L 799.855544 525.459424 
L 800.464393 525.597979 
L 801.225454 525.576462 
L 802.138728 525.53796 
L 805.335185 525.37675 
L 806.857308 525.355386 
L 808.683855 525.255923 
L 809.597129 525.27515 
L 810.205978 525.232029 
L 814.315709 525.241278 
L 815.990043 525.311484 
L 817.512166 525.307839 
L 819.034289 525.421664 
L 819.643138 525.431049 
L 820.251987 525.469555 
L 826.188265 526.253605 
L 826.644902 526.299567 
L 827.558175 526.388094 
L 828.167024 526.516903 
L 830.450208 526.817914 
L 831.515694 526.948784 
L 833.342241 527.20403 
L 835.625425 527.16198 
L 836.690911 527.240121 
L 837.451972 527.314501 
L 838.213034 527.337391 
L 838.66967 527.438712 
L 839.735156 527.72161 
L 840.64843 527.855307 
L 841.105066 527.924425 
L 842.779401 527.945621 
L 843.236038 527.943114 
L 844.149312 528.020722 
L 845.823647 528.238325 
L 846.584708 528.474726 
L 852.977623 528.760681 
L 853.43426 528.748888 
L 853.890896 528.765869 
L 854.499745 528.784044 
L 856.478505 528.807927 
L 857.391778 528.856503 
L 863.328057 529.197517 
L 864.393542 529.110182 
L 865.915665 528.962072 
L 866.220089 528.941247 
L 867.59 528.83976 
L 867.894424 528.809175 
L 870.177608 528.990619 
L 873.221853 528.517738 
L 874.287339 528.664674 
L 874.896188 528.633999 
L 876.722735 528.735478 
L 877.331584 528.682245 
L 877.940434 528.667393 
L 878.244858 528.64989 
L 879.005919 528.634065 
L 879.766981 528.733702 
L 880.528042 528.727229 
L 881.136891 528.839099 
L 882.354589 529.035476 
L 882.659014 529.024322 
L 882.963438 528.986122 
L 884.485561 528.979773 
L 884.942198 528.888739 
L 887.682018 528.793107 
L 892.705023 528.475265 
L 896.510329 528.58534 
L 896.814754 528.555362 
L 897.271391 528.576366 
L 898.641301 528.50781 
L 899.25015 528.53459 
L 902.294395 528.165662 
L 902.903244 528.208778 
L 907.3174 528.321376 
L 908.078461 528.296507 
L 908.382886 528.271119 
L 909.905008 528.151069 
L 912.949253 527.934048 
L 913.558103 527.93542 
L 914.471376 527.916688 
L 915.080225 527.94343 
L 916.906772 527.877688 
L 917.972258 527.906147 
L 918.581107 527.917546 
L 919.342168 527.927703 
L 919.646593 528.010513 
L 921.016503 528.074404 
L 922.538626 527.931369 
L 922.84305 527.983528 
L 925.887296 527.559758 
L 926.343932 527.477731 
L 927.409418 527.36037 
L 928.17048 527.225932 
L 928.779329 527.250139 
L 929.235965 527.250742 
L 932.584635 527.079585 
L 933.345696 526.999234 
L 933.802333 526.997696 
L 933.954545 526.925629 
L 933.954545 526.925629 
" style="fill:none;stroke:#1f77b4;stroke-linecap:square;stroke-width:1.5;"/>
   </g>
   <g id="line2d_47">
    <path clip-path="url(#pda6af0d51c)" d="M 173.045455 143.305985 
L 173.349879 145.504347 
L 174.263153 153.495206 
L 178.068459 181.789398 
L 180.656068 199.295129 
L 182.939251 213.277751 
L 185.070223 225.000498 
L 187.048983 234.663479 
L 188.87553 242.487189 
L 190.549865 248.752704 
L 192.224199 254.237373 
L 194.050747 259.467067 
L 196.029506 264.433235 
L 198.160478 269.163193 
L 200.595874 274.011947 
L 203.335694 278.95846 
L 206.684364 284.520723 
L 210.641883 290.67341 
L 217.491435 300.698843 
L 226.167534 312.885918 
L 248.542736 343.630002 
L 289.487834 399.722643 
L 292.532079 403.899909 
L 299.381631 413.4173 
L 306.535607 423.174135 
L 313.385159 432.532466 
L 318.408163 439.497717 
L 325.257715 448.998099 
L 326.627626 450.839861 
L 328.606385 453.585018 
L 338.34797 467.187707 
L 342.153276 472.481793 
L 343.675399 474.426529 
L 345.80637 477.31313 
L 346.719644 478.427767 
L 352.50371 486.677747 
L 352.960347 487.33581 
L 354.939106 490.299095 
L 357.831139 494.163861 
L 361.027596 498.184887 
L 362.397507 499.994503 
L 363.158568 500.574022 
L 366.355026 504.304078 
L 366.963875 505.142102 
L 367.420511 505.555947 
L 368.333785 506.561206 
L 369.094846 507.560858 
L 369.703695 508.308541 
L 370.00812 508.604772 
L 370.616969 509.381862 
L 371.986879 510.855475 
L 373.204577 511.765273 
L 374.7267 513.988258 
L 375.183337 514.564162 
L 375.487761 514.708794 
L 376.553247 516.08426 
L 377.314308 516.801157 
L 377.770945 517.29163 
L 378.379794 518.184172 
L 378.836431 518.373797 
L 379.293068 518.378227 
L 379.749704 518.426204 
L 380.054129 518.622397 
L 380.662978 519.043444 
L 381.424039 519.754987 
L 381.880676 520.156026 
L 382.185101 520.418118 
L 382.489525 520.67138 
L 382.79395 520.993128 
L 383.098374 521.332893 
L 383.555011 521.704161 
L 384.620497 522.639231 
L 385.53377 523.685572 
L 385.838195 523.777108 
L 386.294832 524.379477 
L 386.751468 524.876282 
L 387.208105 525.430153 
L 388.121379 526.485161 
L 388.730228 526.697946 
L 389.034652 526.845143 
L 389.186865 526.761681 
L 389.795714 527.001024 
L 390.100138 526.903641 
L 390.404563 526.954833 
L 390.708987 527.242524 
L 391.013412 527.539208 
L 392.078898 529.082007 
L 392.383322 529.37994 
L 392.687747 529.840515 
L 392.992171 530.356866 
L 393.448808 530.93178 
L 393.905445 531.556515 
L 394.362082 532.398913 
L 394.818718 532.73608 
L 395.275355 533.28376 
L 395.57978 533.453538 
L 396.188629 533.89319 
L 396.94969 534.743778 
L 397.862964 535.688657 
L 398.167388 535.805615 
L 398.3196 535.752387 
L 398.776237 535.879859 
L 399.232874 535.837787 
L 399.841723 536.127452 
L 400.602784 536.632089 
L 401.516058 536.666025 
L 401.820482 536.99775 
L 402.124907 536.963145 
L 402.581544 537.191006 
L 403.03818 537.650698 
L 403.342605 537.78538 
L 403.799242 538.743634 
L 405.169152 541.204686 
L 405.473577 541.348622 
L 405.930213 541.351201 
L 406.234638 541.404923 
L 406.38685 541.320988 
L 407.300124 542.101679 
L 407.452336 542.113815 
L 407.75676 541.912029 
L 408.213397 541.96565 
L 408.517822 541.699047 
L 409.126671 541.895455 
L 409.431095 542.323331 
L 409.887732 542.937418 
L 410.192157 542.933618 
L 410.496581 542.885536 
L 410.648793 542.908387 
L 410.953218 543.113154 
L 411.257642 543.262052 
L 411.866491 543.215838 
L 412.170916 543.434576 
L 412.627553 543.148287 
L 413.388614 542.87901 
L 413.845251 542.68863 
L 414.910737 541.232649 
L 415.519586 541.160624 
L 415.82401 541.192878 
L 416.128435 541.073705 
L 416.280647 540.996333 
L 416.737284 541.557729 
L 417.650557 542.929729 
L 418.259406 543.190765 
L 418.716043 543.252402 
L 418.868255 543.335548 
L 419.17268 543.160017 
L 419.933741 542.452685 
L 420.694803 542.075988 
L 421.455864 540.825202 
L 421.912501 541.010684 
L 422.52135 540.554786 
L 422.673562 540.384467 
L 422.825774 540.422571 
L 423.130199 540.171783 
L 423.434623 540.411569 
L 423.739048 540.651242 
L 424.195685 540.492061 
L 424.804534 540.78543 
L 425.413383 541.73539 
L 425.870019 541.74856 
L 426.326656 542.392244 
L 426.783293 542.466644 
L 427.392142 542.218021 
L 427.848779 541.795303 
L 428.153203 541.422408 
L 428.457628 541.137418 
L 428.762052 540.960772 
L 428.914265 540.962939 
L 429.370901 540.525509 
L 429.675326 540.69593 
L 430.436387 540.881369 
L 431.197449 540.773028 
L 431.501873 541.041654 
L 432.110722 541.927922 
L 433.176208 542.462825 
L 433.480632 542.61646 
L 434.698331 543.198257 
L 435.154967 543.910093 
L 435.763816 544.202081 
L 436.220453 544.429741 
L 436.524878 544.160585 
L 436.981514 543.448064 
L 437.590364 543.024991 
L 438.047 543.136399 
L 438.199213 543.111034 
L 439.416911 541.668531 
L 439.569123 541.73881 
L 440.02576 541.530088 
L 440.786821 540.563394 
L 441.091246 540.623673 
L 441.243458 540.849778 
L 441.39567 540.84686 
L 441.700095 540.678174 
L 442.004519 540.662026 
L 442.76558 541.06781 
L 443.374429 540.772544 
L 443.983278 540.75145 
L 444.287703 540.522221 
L 444.592128 540.43546 
L 444.896552 540.758009 
L 445.353189 541.12803 
L 445.657613 541.526928 
L 447.179736 544.597413 
L 448.397434 545.3703 
L 448.701859 546.076149 
L 449.158495 547.077814 
L 449.615132 547.680627 
L 449.919557 548.227099 
L 450.528406 548.361711 
L 451.593892 550.086203 
L 451.746104 550.174228 
L 452.202741 550.11995 
L 452.81159 550.532234 
L 453.420439 551.550013 
L 453.724863 551.734481 
L 454.029288 551.78942 
L 454.333712 551.795105 
L 454.790349 552.230812 
L 454.942561 552.146311 
L 455.55141 552.740029 
L 455.703623 552.961153 
L 456.160259 552.769698 
L 456.616896 552.891605 
L 457.53017 552.955838 
L 458.291231 552.47747 
L 458.90008 552.059073 
L 459.508929 551.113569 
L 459.813354 551.087334 
L 459.965566 551.055592 
L 460.878839 550.161906 
L 461.031052 550.268081 
L 462.24875 549.688264 
L 463.009811 548.997024 
L 463.314236 548.664856 
L 463.466448 548.660662 
L 463.923085 548.120007 
L 464.227509 547.764898 
L 464.684146 547.478334 
L 465.140783 547.447571 
L 465.445207 547.607283 
L 466.054056 547.865375 
L 466.358481 547.766342 
L 467.576179 547.61971 
L 468.032816 547.367107 
L 468.489452 547.369032 
L 469.250514 546.551246 
L 469.554938 546.195751 
L 470.468212 545.537517 
L 471.077061 545.588586 
L 471.68591 545.185263 
L 472.294759 545.345356 
L 473.360245 545.115723 
L 473.664669 545.207974 
L 474.425731 545.17604 
L 474.882367 544.705829 
L 475.186792 544.373513 
L 475.795641 544.049439 
L 475.947853 543.861482 
L 476.556702 543.851555 
L 477.317764 543.363896 
L 478.078825 543.678884 
L 478.383249 543.590854 
L 478.687674 543.756257 
L 479.600947 544.201005 
L 479.75316 544.152176 
L 480.057584 544.37143 
L 480.514221 544.164188 
L 480.818646 544.204309 
L 481.12307 544.072454 
L 481.579707 544.061868 
L 481.884131 543.958609 
L 482.340768 544.038387 
L 482.949617 544.135402 
L 483.101829 544.070803 
L 483.254042 544.196031 
L 483.558466 543.962825 
L 484.015103 543.43469 
L 484.167315 543.428886 
L 484.47174 543.259826 
L 484.623952 543.311375 
L 485.232801 542.704887 
L 485.537226 542.435647 
L 485.84165 542.543863 
L 486.146075 542.727407 
L 486.754924 543.034785 
L 487.82041 543.106443 
L 488.733683 542.520316 
L 489.038108 542.398668 
L 489.19032 542.37336 
L 490.103593 541.319243 
L 490.864655 540.691015 
L 491.169079 540.265766 
L 491.473504 540.156392 
L 491.930141 539.729672 
L 492.234565 539.618505 
L 492.53899 539.628905 
L 492.995626 539.696881 
L 493.300051 539.712804 
L 493.604475 540.044278 
L 493.9089 539.963774 
L 494.365537 539.667591 
L 495.431023 539.583027 
L 495.735447 539.336076 
L 496.192084 539.248988 
L 496.953145 539.63694 
L 497.25757 539.614949 
L 497.714206 539.450301 
L 498.323056 539.094208 
L 499.236329 538.589995 
L 499.540754 538.621196 
L 499.692966 538.782607 
L 499.845178 538.691491 
L 499.99739 538.739979 
L 500.149603 538.671354 
L 500.301815 538.769037 
L 500.606239 538.691324 
L 500.910664 538.711536 
L 501.215088 538.681315 
L 501.519513 538.873219 
L 502.128362 538.61219 
L 502.584999 538.321091 
L 502.889423 538.346993 
L 503.193848 538.114867 
L 503.802697 538.091761 
L 504.107121 538.315282 
L 504.71597 538.039209 
L 505.477032 537.604605 
L 505.781456 537.244984 
L 506.69473 536.019556 
L 507.608003 535.615626 
L 508.06464 535.634525 
L 508.825702 534.883192 
L 509.130126 534.892649 
L 509.282338 534.808162 
L 509.738975 535.008746 
L 510.0434 535.336107 
L 510.347824 535.529716 
L 510.804461 535.505597 
L 511.108885 535.504523 
L 511.41331 535.527189 
L 511.565522 535.424547 
L 512.022159 535.702198 
L 512.478796 536.14148 
L 513.392069 536.235482 
L 513.696494 536.435144 
L 514.305343 536.424173 
L 515.218616 535.509684 
L 515.675253 535.502288 
L 516.284102 535.580434 
L 516.588527 535.392952 
L 516.892951 534.99376 
L 517.045164 534.906782 
L 517.349588 534.975594 
L 517.806225 534.857296 
L 518.262862 534.463625 
L 518.567286 534.280751 
L 519.176135 533.787817 
L 519.328347 533.869439 
L 519.632772 533.788499 
L 521.459319 534.383055 
L 521.915956 534.683643 
L 522.22038 534.584747 
L 522.524805 534.700226 
L 523.285866 534.085266 
L 523.438079 534.074178 
L 523.590291 533.8966 
L 523.894715 533.913483 
L 524.19914 533.757019 
L 524.807989 533.918639 
L 525.721262 534.135715 
L 526.330111 534.402797 
L 526.634536 534.303589 
L 527.243385 534.008755 
L 527.54781 534.055581 
L 527.852234 534.015056 
L 528.613295 534.302349 
L 528.91772 534.401227 
L 529.222144 534.570032 
L 529.526569 534.47888 
L 529.830993 534.160072 
L 531.200904 534.026602 
L 531.809753 534.10246 
L 531.961965 534.013978 
L 532.418602 534.218681 
L 532.875239 534.143439 
L 533.331875 534.03788 
L 533.6363 534.112593 
L 533.788512 534.1385 
L 534.092937 534.418028 
L 534.397361 534.377129 
L 534.701786 534.283022 
L 535.00621 534.282858 
L 535.158423 534.229357 
L 535.310635 534.315465 
L 535.462847 534.27052 
L 536.071696 534.574122 
L 536.223908 534.52584 
L 536.98497 534.946461 
L 537.441607 534.999698 
L 537.898243 534.883234 
L 538.202668 534.898993 
L 538.659305 535.139773 
L 538.811517 535.160075 
L 539.877003 534.491623 
L 540.485852 534.478342 
L 541.246913 533.862847 
L 541.399125 533.714374 
L 541.70355 533.845927 
L 542.464611 533.767117 
L 542.769036 533.944864 
L 543.07346 533.929044 
L 543.986734 533.592022 
L 544.595583 533.136843 
L 544.747795 533.21597 
L 545.356644 532.764138 
L 545.661069 532.556626 
L 545.813281 532.628563 
L 546.117705 532.347754 
L 547.030979 532.337294 
L 547.183191 532.509617 
L 547.639828 532.360784 
L 547.944252 532.37743 
L 548.553102 532.421771 
L 549.009738 532.351791 
L 549.618587 532.348747 
L 550.379649 532.177602 
L 550.988498 531.678192 
L 551.749559 531.944012 
L 552.206196 531.760744 
L 552.662833 531.941899 
L 552.967257 531.885129 
L 553.119469 531.814139 
L 554.48938 532.334575 
L 555.098229 532.377461 
L 556.772564 532.274043 
L 557.838049 532.156648 
L 559.816809 532.04998 
L 560.121233 531.931991 
L 560.730082 531.921169 
L 561.186719 531.818399 
L 562.099993 532.133941 
L 563.165479 531.835652 
L 563.622115 531.908916 
L 564.687601 531.575916 
L 564.992026 531.419669 
L 565.753087 531.527966 
L 566.209724 531.635367 
L 566.514148 531.655717 
L 566.970785 531.576111 
L 567.27521 531.652383 
L 567.884059 531.665474 
L 568.188483 531.719146 
L 568.64512 531.70617 
L 569.101757 531.824405 
L 569.862818 532.225547 
L 570.776092 532.32349 
L 571.080516 532.345423 
L 571.689365 532.406342 
L 572.146002 532.233966 
L 572.602639 531.926054 
L 573.3637 531.858586 
L 574.73361 531.878463 
L 575.038035 531.904575 
L 578.08228 531.733941 
L 578.538917 531.669939 
L 580.061039 531.666045 
L 580.517676 531.67129 
L 580.822101 531.613809 
L 581.278738 531.743254 
L 583.714134 531.632233 
L 584.77962 531.786493 
L 585.236256 531.635052 
L 585.845105 531.700665 
L 588.280502 531.802143 
L 589.041563 531.571379 
L 589.650412 531.690921 
L 590.86811 531.888842 
L 591.476959 531.883779 
L 592.23802 532.105646 
L 593.760143 532.372245 
L 594.368992 532.699743 
L 594.673417 532.741245 
L 595.130053 532.62114 
L 595.58669 532.705516 
L 596.499964 532.947557 
L 596.9566 532.779484 
L 598.174298 532.782793 
L 598.478723 532.947642 
L 598.783148 532.855318 
L 599.239784 532.898787 
L 599.696421 532.721117 
L 600.457482 532.615576 
L 601.066331 532.225608 
L 601.522968 532.221587 
L 602.131817 532.309597 
L 604.262789 532.528623 
L 604.567213 532.484875 
L 605.02385 532.292394 
L 605.328275 532.297018 
L 605.937124 532.209131 
L 606.393761 532.237414 
L 607.00261 532.246362 
L 607.459246 532.255632 
L 608.068095 532.17464 
L 608.37252 532.037543 
L 611.568977 531.721727 
L 612.025614 531.676229 
L 612.634463 531.668145 
L 613.0911 531.744606 
L 613.852161 531.764966 
L 615.678708 532.275188 
L 617.961892 533.135239 
L 618.418529 533.167349 
L 619.636227 533.315705 
L 620.092864 533.250903 
L 620.549501 533.169475 
L 621.15835 533.053736 
L 623.441534 532.305255 
L 624.354807 531.867669 
L 624.811444 531.959303 
L 625.268081 531.825129 
L 625.572505 531.854035 
L 625.87693 531.882514 
L 628.160114 531.7157 
L 628.616751 531.552635 
L 629.2256 531.566228 
L 629.834449 531.45939 
L 631.508784 531.568696 
L 631.96542 531.924585 
L 632.574269 532.003996 
L 633.335331 532.10308 
L 633.791967 531.914302 
L 634.857453 532.233162 
L 635.161878 532.272355 
L 636.379576 532.100494 
L 638.053911 532.126208 
L 638.814972 532.080231 
L 639.576033 531.927955 
L 640.184882 531.751319 
L 640.489307 531.740558 
L 641.250368 531.571323 
L 642.468066 531.769187 
L 642.772491 531.777292 
L 643.990189 531.60024 
L 644.599038 531.686325 
L 645.207887 531.687522 
L 645.512312 531.619708 
L 647.491071 531.97923 
L 648.556557 532.280837 
L 649.165406 532.133447 
L 650.230892 532.453695 
L 650.535316 532.464273 
L 652.057439 532.166686 
L 652.361863 532.119988 
L 652.8185 531.943883 
L 653.731774 531.947665 
L 654.492835 531.547824 
L 654.797259 531.437947 
L 655.253896 531.366685 
L 655.710533 531.187772 
L 656.014958 531.149694 
L 657.080443 531.30968 
L 657.53708 531.318148 
L 657.993717 531.426586 
L 658.298141 531.411023 
L 658.754778 531.332211 
L 659.668052 531.12393 
L 659.972476 531.347478 
L 660.429113 531.528719 
L 660.733538 531.57662 
L 660.88575 531.654684 
L 661.190174 531.641177 
L 661.646811 531.72755 
L 661.951236 531.637607 
L 662.560085 531.838358 
L 662.864509 531.814965 
L 663.321146 531.884746 
L 663.929995 531.891456 
L 664.538844 531.912343 
L 664.995481 532.012567 
L 665.299905 531.961509 
L 665.60433 532.036569 
L 666.517604 531.848076 
L 667.735302 531.63433 
L 668.039726 531.620185 
L 668.953 531.47809 
L 670.627335 531.175647 
L 671.083971 531.026419 
L 671.540608 531.092605 
L 671.845033 531.06841 
L 672.301669 531.020948 
L 672.758306 530.783414 
L 674.432641 530.883461 
L 675.193702 530.742995 
L 675.802551 530.624977 
L 676.106976 530.632749 
L 676.868037 530.786472 
L 678.085735 530.529565 
L 678.542372 530.610151 
L 678.846797 530.583327 
L 679.455646 530.758849 
L 680.216707 530.817507 
L 682.499891 530.730814 
L 683.260952 530.641988 
L 685.544136 530.634373 
L 686.152985 530.742037 
L 687.066259 530.614365 
L 687.979532 530.544693 
L 688.740594 530.351454 
L 689.806079 530.433172 
L 690.414928 530.269585 
L 690.871565 530.342734 
L 691.480414 530.385509 
L 693.154749 530.680015 
L 693.611386 530.860528 
L 695.437933 531.473822 
L 695.89457 531.500388 
L 696.503419 531.585162 
L 697.112268 531.433794 
L 697.721117 531.361189 
L 699.395452 530.926312 
L 699.699876 530.943474 
L 700.156513 530.78975 
L 701.069787 530.911575 
L 701.678636 530.653976 
L 702.135273 530.68046 
L 702.591909 530.670667 
L 703.200758 530.713881 
L 703.505183 530.703389 
L 703.96182 530.657224 
L 704.570669 530.699498 
L 704.875093 530.626729 
L 705.483942 530.673105 
L 707.006065 530.627687 
L 707.614914 530.592216 
L 708.832612 530.782895 
L 709.441461 530.636165 
L 710.354735 530.714281 
L 710.811371 530.632219 
L 713.246768 530.437906 
L 713.703404 530.529438 
L 714.312253 530.634848 
L 714.616678 530.557733 
L 715.073315 530.624693 
L 715.377739 530.541624 
L 716.443225 530.841063 
L 716.899862 530.808083 
L 717.813135 530.802607 
L 718.11756 530.945543 
L 719.030833 530.916796 
L 719.335258 530.8582 
L 719.639682 530.828514 
L 720.400744 530.771663 
L 721.770654 530.856465 
L 722.227291 530.737258 
L 722.988352 530.823533 
L 723.444989 531.028243 
L 725.728173 531.213722 
L 727.402508 530.824622 
L 727.706932 530.852261 
L 728.772418 530.830496 
L 729.229055 530.962165 
L 729.533479 531.074306 
L 730.90339 531.551816 
L 731.207814 531.556861 
L 731.664451 531.473306 
L 732.882149 531.628891 
L 733.186574 531.506018 
L 733.795423 531.479614 
L 734.25206 531.460782 
L 734.556484 531.56632 
L 735.469758 531.5886 
L 735.926394 531.755148 
L 736.839668 531.779971 
L 737.144092 531.756521 
L 737.905154 531.885132 
L 738.209578 531.851637 
L 739.579489 532.337743 
L 741.558248 532.861404 
L 741.862673 532.836569 
L 743.68922 532.921844 
L 744.754705 533.070449 
L 745.211342 532.837162 
L 746.581253 532.884094 
L 746.733465 532.931476 
L 747.037889 532.854806 
L 747.798951 532.820279 
L 748.864437 532.925546 
L 750.082135 532.920363 
L 751.14762 533.034675 
L 751.756469 532.782737 
L 752.365319 532.660274 
L 752.974168 532.725036 
L 754.800715 532.537822 
L 755.257351 532.579975 
L 756.018413 532.637075 
L 756.931686 532.86605 
L 757.236111 532.970356 
L 757.540535 533.139083 
L 757.84496 533.142718 
L 758.149384 533.112086 
L 759.062658 533.103486 
L 759.671507 533.087059 
L 760.280356 533.395265 
L 760.889205 533.320276 
L 762.411328 533.224254 
L 763.476814 533.39203 
L 763.93345 533.522265 
L 765.151148 533.570994 
L 765.759997 533.582792 
L 766.521059 533.766337 
L 766.825483 533.87254 
L 767.586545 533.872523 
L 767.890969 533.981734 
L 772.0007 534.254896 
L 772.305125 533.91819 
L 773.066186 533.817919 
L 774.588309 533.667723 
L 775.044945 533.589083 
L 775.653794 533.617483 
L 776.262643 533.429503 
L 776.567068 533.288884 
L 778.241403 533.103099 
L 779.154676 532.659437 
L 779.611313 532.760629 
L 779.915738 532.820618 
L 780.372374 532.875442 
L 780.524587 532.95096 
L 780.981224 532.739029 
L 781.43786 532.83458 
L 782.046709 532.764189 
L 782.503346 532.930072 
L 782.807771 532.992953 
L 783.264407 532.798665 
L 784.177681 532.736668 
L 784.634318 532.767001 
L 787.678563 532.081654 
L 788.1352 532.19699 
L 788.439624 532.191525 
L 789.048473 531.98727 
L 789.961747 532.059069 
L 790.418384 532.056642 
L 791.636082 532.123767 
L 792.701568 532.287213 
L 793.919266 531.972267 
L 796.506874 532.045887 
L 796.811299 532.129417 
L 798.637846 531.917298 
L 799.398907 531.953153 
L 799.703332 531.878575 
L 800.159968 531.686242 
L 800.616605 531.721397 
L 801.225454 531.64912 
L 802.138728 531.24553 
L 802.747577 531.235472 
L 803.204214 531.17536 
L 803.508638 531.104198 
L 804.421912 531.021615 
L 806.400671 530.826725 
L 807.161732 530.935888 
L 807.466157 530.91642 
L 808.227218 531.193259 
L 808.531643 531.175721 
L 809.140492 530.874624 
L 809.749341 530.852664 
L 810.053765 530.682727 
L 810.510402 530.720322 
L 811.119251 530.784829 
L 811.271463 530.80294 
L 811.575888 530.689481 
L 812.184737 530.632046 
L 812.489161 530.547923 
L 812.793586 530.618297 
L 813.098011 530.715863 
L 813.554647 530.640274 
L 813.859072 530.559871 
L 814.315709 530.580389 
L 814.924558 530.518507 
L 815.381194 530.45786 
L 815.685619 530.392794 
L 816.751105 530.461005 
L 817.968803 530.730859 
L 819.034289 530.513857 
L 819.338713 530.421456 
L 820.404199 530.566145 
L 820.708624 530.580832 
L 821.16526 530.741269 
L 821.469685 530.792754 
L 822.230746 530.671673 
L 822.687383 530.701873 
L 823.14402 530.762719 
L 823.448444 530.869301 
L 823.905081 531.04184 
L 825.274991 531.083058 
L 825.731628 531.028493 
L 826.492689 531.207146 
L 827.101538 531.015466 
L 827.558175 531.087736 
L 828.167024 531.115342 
L 828.471449 531.094985 
L 828.928086 531.223168 
L 829.23251 531.292407 
L 830.754633 531.740605 
L 833.494453 532.526232 
L 834.103302 532.507692 
L 834.407727 532.604922 
L 835.92985 532.758492 
L 836.386486 532.846657 
L 836.843123 532.955579 
L 837.29976 532.952357 
L 837.756397 533.111959 
L 838.060821 533.109497 
L 838.66967 533.006853 
L 839.278519 532.889442 
L 839.582944 532.780501 
L 840.496217 532.997947 
L 840.800642 533.159301 
L 841.713916 533.040263 
L 843.236038 532.969433 
L 843.692675 532.81957 
L 845.36701 532.668338 
L 845.671434 532.671037 
L 845.975859 532.718036 
L 846.584708 532.49574 
L 846.889132 532.619869 
L 849.020104 532.319543 
L 849.324529 532.42316 
L 849.628953 532.418356 
L 850.08559 532.297996 
L 850.542227 532.229157 
L 851.303288 532.010082 
L 852.216561 532.023675 
L 853.129835 532.016654 
L 854.956382 531.732793 
L 855.413019 531.728705 
L 855.717443 531.795814 
L 856.326293 531.798406 
L 856.782929 531.919806 
L 857.391778 531.695361 
L 858.15284 531.578145 
L 858.761689 531.505982 
L 859.218325 531.451241 
L 862.719207 531.735895 
L 863.023632 531.639368 
L 863.784693 531.559797 
L 864.24133 531.341183 
L 865.002391 531.49372 
L 865.61124 531.42298 
L 866.220089 531.51583 
L 867.285575 531.478905 
L 867.59 531.617867 
L 868.351061 531.79673 
L 868.807698 531.643162 
L 870.025396 532.035697 
L 870.482033 532.222953 
L 871.090882 532.229988 
L 872.30858 532.044036 
L 872.917429 531.990624 
L 873.221853 531.934678 
L 874.439552 532.037434 
L 875.809462 531.845428 
L 876.113886 531.944017 
L 877.179372 531.888507 
L 877.788221 531.689374 
L 878.39707 531.876561 
L 878.853707 531.787268 
L 879.462556 531.588713 
L 880.223617 531.56961 
L 880.984679 531.633614 
L 881.593528 531.662922 
L 883.724499 531.518371 
L 887.83423 531.529143 
L 888.595292 531.413085 
L 889.356353 531.581957 
L 889.81299 531.821903 
L 890.726263 531.80113 
L 891.791749 532.062067 
L 892.248386 532.307779 
L 892.552811 532.43743 
L 892.857235 532.524944 
L 893.313872 532.722045 
L 894.683782 532.676844 
L 895.292631 532.567764 
L 895.749268 532.313147 
L 896.358117 532.021361 
L 898.336876 531.820619 
L 898.945726 531.873754 
L 899.402362 531.966854 
L 899.706787 531.817528 
L 901.685546 531.325844 
L 902.294395 531.324201 
L 902.446608 531.203882 
L 903.207669 531.2654 
L 904.120942 531.2366 
L 904.577579 531.450085 
L 905.034216 531.427854 
L 905.33864 531.365199 
L 905.643065 531.385852 
L 906.099702 531.493309 
L 906.556339 531.587415 
L 907.165188 531.782415 
L 908.078461 531.691441 
L 909.600584 532.322708 
L 909.905008 532.509292 
L 910.66607 532.754326 
L 911.274919 532.797063 
L 911.883768 532.963587 
L 914.623588 533.090462 
L 915.536862 532.773697 
L 916.602348 532.937885 
L 917.363409 532.920234 
L 917.820046 532.935107 
L 918.581107 532.687392 
L 919.494381 532.462178 
L 920.10323 532.577538 
L 920.407654 532.476651 
L 922.234201 532.540901 
L 922.538626 532.552279 
L 923.451899 532.486945 
L 923.756324 532.46376 
L 924.517385 532.440015 
L 924.82181 532.392257 
L 925.278447 532.120256 
L 925.735083 531.985106 
L 926.19172 532.098558 
L 927.713843 531.916203 
L 928.322692 531.916812 
L 929.235965 531.766675 
L 929.54039 531.639981 
L 930.149239 531.750896 
L 930.605876 531.649289 
L 931.062513 531.722334 
L 931.671362 531.745964 
L 931.975786 531.798986 
L 933.345696 531.802415 
L 933.802333 531.759063 
L 933.954545 531.71564 
L 933.954545 531.71564 
" style="fill:none;stroke:#ff7f0e;stroke-linecap:square;stroke-width:1.5;"/>
   </g>
   <g id="line2d_48">
    <path clip-path="url(#pda6af0d51c)" d="M 173.045455 238.51101 
L 175.785275 244.400423 
L 178.82952 251.482259 
L 182.330402 260.196856 
L 185.983497 269.8825 
L 189.941015 281.018017 
L 195.420657 297.097025 
L 201.204723 314.779662 
L 207.141001 333.659836 
L 213.381704 354.280199 
L 218.404708 370.672587 
L 221.296741 379.359403 
L 223.732137 385.991745 
L 226.015321 391.538901 
L 227.994081 395.775439 
L 229.97284 399.483606 
L 231.799387 402.463854 
L 233.625934 405.047638 
L 235.604694 407.456576 
L 237.583453 409.505405 
L 239.714425 411.376714 
L 241.997609 413.073442 
L 244.433005 414.609854 
L 247.172825 416.084536 
L 250.673707 417.701126 
L 255.392288 419.602327 
L 262.546264 422.214136 
L 285.378103 430.476294 
L 294.815263 434.159696 
L 303.034725 437.500536 
L 316.886041 443.44018 
L 325.866564 447.393747 
L 346.415219 452.300361 
L 353.416983 454.155562 
L 376.705459 460.545699 
L 400.907209 467.882654 
L 410.192157 470.796875 
L 429.066477 476.96849 
L 467.728391 490.859671 
L 477.622188 494.703134 
L 499.388541 499.020244 
L 505.629244 500.233463 
L 511.565522 501.456165 
L 516.436315 502.438537 
L 521.763744 503.509582 
L 533.179663 505.986307 
L 553.880531 510.512835 
L 556.620351 511.047955 
L 565.905299 513.300119 
L 569.101757 514.013405 
L 577.321219 515.761577 
L 579.908827 516.333135 
L 590.563685 518.586064 
L 602.436242 521.447577 
L 605.02385 521.99025 
L 610.503492 523.347503 
L 614.613223 524.498116 
L 630.291085 527.969566 
L 640.03267 529.21095 
L 643.837977 529.697508 
L 647.186646 530.111877 
L 654.18841 530.87733 
L 659.820264 531.847926 
L 669.257424 533.123742 
L 682.043254 534.669641 
L 689.045018 535.333912 
L 692.089263 535.680449 
L 698.177754 536.592085 
L 703.048546 536.94842 
L 705.788367 537.43072 
L 710.202522 538.111838 
L 728.467994 540.101673 
L 740.949399 541.863653 
L 744.754705 542.33946 
L 750.082135 543.002425 
L 753.430804 543.298352 
L 760.280356 544.268301 
L 765.759997 544.922616 
L 773.675035 545.364261 
L 780.676799 546.274211 
L 788.744049 546.888081 
L 804.117487 547.813315 
L 813.250223 548.116009 
L 818.42544 548.317621 
L 826.644902 548.534409 
L 832.885604 548.583552 
L 839.735156 548.450778 
L 843.692675 548.747285 
L 849.172316 549.262662 
L 865.306816 550.309537 
L 870.482033 550.368926 
L 877.940434 550.573617 
L 890.117414 551.054428 
L 893.16166 551.367354 
L 907.165188 551.779906 
L 913.253678 552.239112 
L 916.297923 552.500058 
L 923.451899 552.89328 
L 929.083753 553.357115 
L 933.954545 553.501466 
L 933.954545 553.501466 
" style="fill:none;stroke:#2ca02c;stroke-linecap:square;stroke-width:1.5;"/>
   </g>
   <g id="line2d_49">
    <path clip-path="url(#pda6af0d51c)" d="M 173.045455 265.756969 
L 173.197667 605.290909 
L 173.349879 477.173627 
L 173.502091 602.971658 
L 173.654304 602.316256 
L 173.806516 600.760333 
L 173.958728 595.364063 
L 174.11094 601.570736 
L 174.263153 602.414676 
L 174.415365 299.823086 
L 174.719789 602.50171 
L 174.872002 603.960943 
L 175.024214 602.80146 
L 175.176426 602.600569 
L 933.954545 602.600569 
L 933.954545 602.600569 
" style="fill:none;stroke:#d62728;stroke-linecap:square;stroke-width:1.5;"/>
   </g>
   <g id="line2d_50">
    <path clip-path="url(#pda6af0d51c)" d="M 173.045455 111.109091 
L 173.197667 126.528166 
L 173.502091 111.276109 
L 173.654304 117.408489 
L 173.806516 130.5833 
L 173.958728 129.447813 
L 174.11094 118.549281 
L 174.263153 116.823404 
L 174.567577 136.075182 
L 174.872002 125.877409 
L 175.024214 126.67247 
L 175.328638 132.650044 
L 175.480851 133.107785 
L 175.785275 138.622637 
L 176.0897 137.500094 
L 176.394124 143.861364 
L 176.698549 139.926562 
L 177.155186 150.601033 
L 177.45961 143.939888 
L 177.764035 153.488313 
L 178.068459 150.761858 
L 178.220671 151.910469 
L 178.372884 155.6283 
L 178.525096 156.50974 
L 178.677308 153.926399 
L 178.82952 154.757842 
L 179.133945 159.530195 
L 179.286157 159.256918 
L 179.438369 159.596666 
L 179.742794 162.157115 
L 179.895006 162.363002 
L 180.351643 166.829153 
L 180.656068 164.917236 
L 181.112704 169.335575 
L 181.264917 168.488506 
L 181.417129 169.47515 
L 181.569341 171.60904 
L 181.721553 171.887205 
L 181.873766 171.330167 
L 182.025978 171.868579 
L 182.330402 173.971854 
L 182.482615 173.659658 
L 182.634827 173.872714 
L 182.939251 175.546365 
L 183.243676 174.822228 
L 183.548101 177.888766 
L 183.700313 177.516793 
L 183.852525 176.811484 
L 184.004737 177.346972 
L 184.15695 178.530551 
L 184.309162 178.74825 
L 184.461374 178.757555 
L 184.918011 180.81943 
L 185.070223 180.041176 
L 185.222435 179.994062 
L 185.679072 181.459434 
L 185.831284 181.513767 
L 186.135709 182.423014 
L 186.440133 182.092374 
L 186.592346 182.371356 
L 186.89677 183.422445 
L 187.201195 183.24934 
L 187.505619 184.080188 
L 187.657832 183.955206 
L 187.810044 184.056228 
L 188.266681 184.96207 
L 188.418893 184.821074 
L 188.571105 184.846135 
L 188.723317 184.993568 
L 189.027742 185.471462 
L 189.332166 185.75936 
L 189.484379 186.104935 
L 190.24544 186.330676 
L 190.397652 186.376422 
L 190.702077 186.594596 
L 191.919775 187.586576 
L 192.224199 187.473898 
L 192.680836 188.011648 
L 193.137473 188.165517 
L 193.441897 188.388753 
L 193.59411 188.356502 
L 195.420657 189.329887 
L 195.725081 189.417156 
L 196.33393 189.712178 
L 205.466666 192.893524 
L 216.273737 195.998248 
L 226.015321 198.549824 
L 238.953363 201.711271 
L 254.783439 205.352233 
L 275.332094 209.838703 
L 299.229419 214.831922 
L 330.432932 221.110582 
L 368.942634 228.604596 
L 414.758524 237.265777 
L 468.793877 247.242949 
L 536.680545 259.552969 
L 767.434332 301.198548 
L 829.689147 312.750085 
L 890.878476 324.339958 
L 933.954545 332.637739 
L 933.954545 332.637739 
" style="fill:none;stroke:#9467bd;stroke-linecap:square;stroke-width:1.5;"/>
   </g>
   <g id="patch_3">
    <path d="M 135 630 
L 135 86.4 
" style="fill:none;stroke:#000000;stroke-linecap:square;stroke-linejoin:miter;stroke-width:0.8;"/>
   </g>
   <g id="patch_4">
    <path d="M 972 630 
L 972 86.4 
" style="fill:none;stroke:#000000;stroke-linecap:square;stroke-linejoin:miter;stroke-width:0.8;"/>
   </g>
   <g id="patch_5">
    <path d="M 135 630 
L 972 630 
" style="fill:none;stroke:#000000;stroke-linecap:square;stroke-linejoin:miter;stroke-width:0.8;"/>
   </g>
   <g id="patch_6">
    <path d="M 135 86.4 
L 972 86.4 
" style="fill:none;stroke:#000000;stroke-linecap:square;stroke-linejoin:miter;stroke-width:0.8;"/>
   </g>
   <g id="text_13">
    <!-- relative error in log scale -->
    <defs>
     <path d="M 9.421875 75.984375 
L 18.40625 75.984375 
L 18.40625 0 
L 9.421875 0 
z
" id="DejaVuSans-108"/>
     <path d="M 2.984375 54.6875 
L 12.5 54.6875 
L 29.59375 8.796875 
L 46.6875 54.6875 
L 56.203125 54.6875 
L 35.6875 0 
L 23.484375 0 
z
" id="DejaVuSans-118"/>
     <path id="DejaVuSans-32"/>
     <path d="M 45.40625 27.984375 
Q 45.40625 37.75 41.375 43.109375 
Q 37.359375 48.484375 30.078125 48.484375 
Q 22.859375 48.484375 18.828125 43.109375 
Q 14.796875 37.75 14.796875 27.984375 
Q 14.796875 18.265625 18.828125 12.890625 
Q 22.859375 7.515625 30.078125 7.515625 
Q 37.359375 7.515625 41.375 12.890625 
Q 45.40625 18.265625 45.40625 27.984375 
z
M 54.390625 6.78125 
Q 54.390625 -7.171875 48.1875 -13.984375 
Q 42 -20.796875 29.203125 -20.796875 
Q 24.46875 -20.796875 20.265625 -20.09375 
Q 16.0625 -19.390625 12.109375 -17.921875 
L 12.109375 -9.1875 
Q 16.0625 -11.328125 19.921875 -12.34375 
Q 23.78125 -13.375 27.78125 -13.375 
Q 36.625 -13.375 41.015625 -8.765625 
Q 45.40625 -4.15625 45.40625 5.171875 
L 45.40625 9.625 
Q 42.625 4.78125 38.28125 2.390625 
Q 33.9375 0 27.875 0 
Q 17.828125 0 11.671875 7.65625 
Q 5.515625 15.328125 5.515625 27.984375 
Q 5.515625 40.671875 11.671875 48.328125 
Q 17.828125 56 27.875 56 
Q 33.9375 56 38.28125 53.609375 
Q 42.625 51.21875 45.40625 46.390625 
L 45.40625 54.6875 
L 54.390625 54.6875 
z
" id="DejaVuSans-103"/>
     <path d="M 44.28125 53.078125 
L 44.28125 44.578125 
Q 40.484375 46.53125 36.375 47.5 
Q 32.28125 48.484375 27.875 48.484375 
Q 21.1875 48.484375 17.84375 46.4375 
Q 14.5 44.390625 14.5 40.28125 
Q 14.5 37.15625 16.890625 35.375 
Q 19.28125 33.59375 26.515625 31.984375 
L 29.59375 31.296875 
Q 39.15625 29.25 43.1875 25.515625 
Q 47.21875 21.78125 47.21875 15.09375 
Q 47.21875 7.46875 41.1875 3.015625 
Q 35.15625 -1.421875 24.609375 -1.421875 
Q 20.21875 -1.421875 15.453125 -0.5625 
Q 10.6875 0.296875 5.421875 2 
L 5.421875 11.28125 
Q 10.40625 8.6875 15.234375 7.390625 
Q 20.0625 6.109375 24.8125 6.109375 
Q 31.15625 6.109375 34.5625 8.28125 
Q 37.984375 10.453125 37.984375 14.40625 
Q 37.984375 18.0625 35.515625 20.015625 
Q 33.0625 21.96875 24.703125 23.78125 
L 21.578125 24.515625 
Q 13.234375 26.265625 9.515625 29.90625 
Q 5.8125 33.546875 5.8125 39.890625 
Q 5.8125 47.609375 11.28125 51.796875 
Q 16.75 56 26.8125 56 
Q 31.78125 56 36.171875 55.265625 
Q 40.578125 54.546875 44.28125 53.078125 
z
" id="DejaVuSans-115"/>
     <path d="M 48.78125 52.59375 
L 48.78125 44.1875 
Q 44.96875 46.296875 41.140625 47.34375 
Q 37.3125 48.390625 33.40625 48.390625 
Q 24.65625 48.390625 19.8125 42.84375 
Q 14.984375 37.3125 14.984375 27.296875 
Q 14.984375 17.28125 19.8125 11.734375 
Q 24.65625 6.203125 33.40625 6.203125 
Q 37.3125 6.203125 41.140625 7.25 
Q 44.96875 8.296875 48.78125 10.40625 
L 48.78125 2.09375 
Q 45.015625 0.34375 40.984375 -0.53125 
Q 36.96875 -1.421875 32.421875 -1.421875 
Q 20.0625 -1.421875 12.78125 6.34375 
Q 5.515625 14.109375 5.515625 27.296875 
Q 5.515625 40.671875 12.859375 48.328125 
Q 20.21875 56 33.015625 56 
Q 37.15625 56 41.109375 55.140625 
Q 45.0625 54.296875 48.78125 52.59375 
z
" id="DejaVuSans-99"/>
    </defs>
    <g transform="translate(415.584062 80.4)scale(0.22 -0.22)">
     <use xlink:href="#DejaVuSans-114"/>
     <use x="41.082031" xlink:href="#DejaVuSans-101"/>
     <use x="102.605469" xlink:href="#DejaVuSans-108"/>
     <use x="130.388672" xlink:href="#DejaVuSans-97"/>
     <use x="191.667969" xlink:href="#DejaVuSans-116"/>
     <use x="230.876953" xlink:href="#DejaVuSans-105"/>
     <use x="258.660156" xlink:href="#DejaVuSans-118"/>
     <use x="317.839844" xlink:href="#DejaVuSans-101"/>
     <use x="379.363281" xlink:href="#DejaVuSans-32"/>
     <use x="411.150391" xlink:href="#DejaVuSans-101"/>
     <use x="472.673828" xlink:href="#DejaVuSans-114"/>
     <use x="513.771484" xlink:href="#DejaVuSans-114"/>
     <use x="554.853516" xlink:href="#DejaVuSans-111"/>
     <use x="616.035156" xlink:href="#DejaVuSans-114"/>
     <use x="657.148438" xlink:href="#DejaVuSans-32"/>
     <use x="688.935547" xlink:href="#DejaVuSans-105"/>
     <use x="716.71875" xlink:href="#DejaVuSans-110"/>
     <use x="780.097656" xlink:href="#DejaVuSans-32"/>
     <use x="811.884766" xlink:href="#DejaVuSans-108"/>
     <use x="839.667969" xlink:href="#DejaVuSans-111"/>
     <use x="900.849609" xlink:href="#DejaVuSans-103"/>
     <use x="964.326172" xlink:href="#DejaVuSans-32"/>
     <use x="996.113281" xlink:href="#DejaVuSans-115"/>
     <use x="1048.212891" xlink:href="#DejaVuSans-99"/>
     <use x="1103.193359" xlink:href="#DejaVuSans-97"/>
     <use x="1164.472656" xlink:href="#DejaVuSans-108"/>
     <use x="1192.255859" xlink:href="#DejaVuSans-101"/>
    </g>
   </g>
   <g id="legend_1">
    <g id="patch_7">
     <path d="M 623.853437 265.459375 
L 956.6 265.459375 
Q 961 265.459375 961 261.059375 
L 961 101.8 
Q 961 97.4 956.6 97.4 
L 623.853437 97.4 
Q 619.453437 97.4 619.453437 101.8 
L 619.453437 261.059375 
Q 619.453437 265.459375 623.853437 265.459375 
z
" style="fill:#ffffff;opacity:0.8;stroke:#cccccc;stroke-linejoin:miter;"/>
    </g>
    <g id="line2d_51">
     <path d="M 628.253437 115.216563 
L 672.253437 115.216563 
" style="fill:none;stroke:#1f77b4;stroke-linecap:square;stroke-width:1.5;"/>
    </g>
    <g id="line2d_52"/>
    <g id="text_14">
     <!-- NN GD -->
     <defs>
      <path d="M 9.8125 72.90625 
L 23.09375 72.90625 
L 55.421875 11.921875 
L 55.421875 72.90625 
L 64.984375 72.90625 
L 64.984375 0 
L 51.703125 0 
L 19.390625 60.984375 
L 19.390625 0 
L 9.8125 0 
z
" id="DejaVuSans-78"/>
      <path d="M 59.515625 10.40625 
L 59.515625 29.984375 
L 43.40625 29.984375 
L 43.40625 38.09375 
L 69.28125 38.09375 
L 69.28125 6.78125 
Q 63.578125 2.734375 56.6875 0.65625 
Q 49.8125 -1.421875 42 -1.421875 
Q 24.90625 -1.421875 15.25 8.5625 
Q 5.609375 18.5625 5.609375 36.375 
Q 5.609375 54.25 15.25 64.234375 
Q 24.90625 74.21875 42 74.21875 
Q 49.125 74.21875 55.546875 72.453125 
Q 61.96875 70.703125 67.390625 67.28125 
L 67.390625 56.78125 
Q 61.921875 61.421875 55.765625 63.765625 
Q 49.609375 66.109375 42.828125 66.109375 
Q 29.4375 66.109375 22.71875 58.640625 
Q 16.015625 51.171875 16.015625 36.375 
Q 16.015625 21.625 22.71875 14.15625 
Q 29.4375 6.6875 42.828125 6.6875 
Q 48.046875 6.6875 52.140625 7.59375 
Q 56.25 8.5 59.515625 10.40625 
z
" id="DejaVuSans-71"/>
      <path d="M 19.671875 64.796875 
L 19.671875 8.109375 
L 31.59375 8.109375 
Q 46.6875 8.109375 53.6875 14.9375 
Q 60.6875 21.78125 60.6875 36.53125 
Q 60.6875 51.171875 53.6875 57.984375 
Q 46.6875 64.796875 31.59375 64.796875 
z
M 9.8125 72.90625 
L 30.078125 72.90625 
Q 51.265625 72.90625 61.171875 64.09375 
Q 71.09375 55.28125 71.09375 36.53125 
Q 71.09375 17.671875 61.125 8.828125 
Q 51.171875 0 30.078125 0 
L 9.8125 0 
z
" id="DejaVuSans-68"/>
     </defs>
     <g transform="translate(689.853437 122.916563)scale(0.22 -0.22)">
      <use xlink:href="#DejaVuSans-78"/>
      <use x="74.804688" xlink:href="#DejaVuSans-78"/>
      <use x="149.609375" xlink:href="#DejaVuSans-32"/>
      <use x="181.396484" xlink:href="#DejaVuSans-71"/>
      <use x="258.886719" xlink:href="#DejaVuSans-68"/>
     </g>
    </g>
    <g id="line2d_53">
     <path d="M 628.253437 147.508438 
L 672.253437 147.508438 
" style="fill:none;stroke:#ff7f0e;stroke-linecap:square;stroke-width:1.5;"/>
    </g>
    <g id="line2d_54"/>
    <g id="text_15">
     <!-- NN GD with momentum -->
     <defs>
      <path d="M 4.203125 54.6875 
L 13.1875 54.6875 
L 24.421875 12.015625 
L 35.59375 54.6875 
L 46.1875 54.6875 
L 57.421875 12.015625 
L 68.609375 54.6875 
L 77.59375 54.6875 
L 63.28125 0 
L 52.6875 0 
L 40.921875 44.828125 
L 29.109375 0 
L 18.5 0 
z
" id="DejaVuSans-119"/>
      <path d="M 54.890625 33.015625 
L 54.890625 0 
L 45.90625 0 
L 45.90625 32.71875 
Q 45.90625 40.484375 42.875 44.328125 
Q 39.84375 48.1875 33.796875 48.1875 
Q 26.515625 48.1875 22.3125 43.546875 
Q 18.109375 38.921875 18.109375 30.90625 
L 18.109375 0 
L 9.078125 0 
L 9.078125 75.984375 
L 18.109375 75.984375 
L 18.109375 46.1875 
Q 21.34375 51.125 25.703125 53.5625 
Q 30.078125 56 35.796875 56 
Q 45.21875 56 50.046875 50.171875 
Q 54.890625 44.34375 54.890625 33.015625 
z
" id="DejaVuSans-104"/>
      <path d="M 52 44.1875 
Q 55.375 50.25 60.0625 53.125 
Q 64.75 56 71.09375 56 
Q 79.640625 56 84.28125 50.015625 
Q 88.921875 44.046875 88.921875 33.015625 
L 88.921875 0 
L 79.890625 0 
L 79.890625 32.71875 
Q 79.890625 40.578125 77.09375 44.375 
Q 74.3125 48.1875 68.609375 48.1875 
Q 61.625 48.1875 57.5625 43.546875 
Q 53.515625 38.921875 53.515625 30.90625 
L 53.515625 0 
L 44.484375 0 
L 44.484375 32.71875 
Q 44.484375 40.625 41.703125 44.40625 
Q 38.921875 48.1875 33.109375 48.1875 
Q 26.21875 48.1875 22.15625 43.53125 
Q 18.109375 38.875 18.109375 30.90625 
L 18.109375 0 
L 9.078125 0 
L 9.078125 54.6875 
L 18.109375 54.6875 
L 18.109375 46.1875 
Q 21.1875 51.21875 25.484375 53.609375 
Q 29.78125 56 35.6875 56 
Q 41.65625 56 45.828125 52.96875 
Q 50 49.953125 52 44.1875 
z
" id="DejaVuSans-109"/>
      <path d="M 8.5 21.578125 
L 8.5 54.6875 
L 17.484375 54.6875 
L 17.484375 21.921875 
Q 17.484375 14.15625 20.5 10.265625 
Q 23.53125 6.390625 29.59375 6.390625 
Q 36.859375 6.390625 41.078125 11.03125 
Q 45.3125 15.671875 45.3125 23.6875 
L 45.3125 54.6875 
L 54.296875 54.6875 
L 54.296875 0 
L 45.3125 0 
L 45.3125 8.40625 
Q 42.046875 3.421875 37.71875 1 
Q 33.40625 -1.421875 27.6875 -1.421875 
Q 18.265625 -1.421875 13.375 4.4375 
Q 8.5 10.296875 8.5 21.578125 
z
M 31.109375 56 
z
" id="DejaVuSans-117"/>
     </defs>
     <g transform="translate(689.853437 155.208438)scale(0.22 -0.22)">
      <use xlink:href="#DejaVuSans-78"/>
      <use x="74.804688" xlink:href="#DejaVuSans-78"/>
      <use x="149.609375" xlink:href="#DejaVuSans-32"/>
      <use x="181.396484" xlink:href="#DejaVuSans-71"/>
      <use x="258.886719" xlink:href="#DejaVuSans-68"/>
      <use x="335.888672" xlink:href="#DejaVuSans-32"/>
      <use x="367.675781" xlink:href="#DejaVuSans-119"/>
      <use x="449.462891" xlink:href="#DejaVuSans-105"/>
      <use x="477.246094" xlink:href="#DejaVuSans-116"/>
      <use x="516.455078" xlink:href="#DejaVuSans-104"/>
      <use x="579.833984" xlink:href="#DejaVuSans-32"/>
      <use x="611.621094" xlink:href="#DejaVuSans-109"/>
      <use x="709.033203" xlink:href="#DejaVuSans-111"/>
      <use x="770.214844" xlink:href="#DejaVuSans-109"/>
      <use x="867.626953" xlink:href="#DejaVuSans-101"/>
      <use x="929.150391" xlink:href="#DejaVuSans-110"/>
      <use x="992.529297" xlink:href="#DejaVuSans-116"/>
      <use x="1031.738281" xlink:href="#DejaVuSans-117"/>
      <use x="1095.117188" xlink:href="#DejaVuSans-109"/>
     </g>
    </g>
    <g id="line2d_55">
     <path d="M 628.253437 179.800313 
L 672.253437 179.800313 
" style="fill:none;stroke:#2ca02c;stroke-linecap:square;stroke-width:1.5;"/>
    </g>
    <g id="line2d_56"/>
    <g id="text_16">
     <!-- NN Adam -->
     <defs>
      <path d="M 34.1875 63.1875 
L 20.796875 26.90625 
L 47.609375 26.90625 
z
M 28.609375 72.90625 
L 39.796875 72.90625 
L 67.578125 0 
L 57.328125 0 
L 50.6875 18.703125 
L 17.828125 18.703125 
L 11.1875 0 
L 0.78125 0 
z
" id="DejaVuSans-65"/>
      <path d="M 45.40625 46.390625 
L 45.40625 75.984375 
L 54.390625 75.984375 
L 54.390625 0 
L 45.40625 0 
L 45.40625 8.203125 
Q 42.578125 3.328125 38.25 0.953125 
Q 33.9375 -1.421875 27.875 -1.421875 
Q 17.96875 -1.421875 11.734375 6.484375 
Q 5.515625 14.40625 5.515625 27.296875 
Q 5.515625 40.1875 11.734375 48.09375 
Q 17.96875 56 27.875 56 
Q 33.9375 56 38.25 53.625 
Q 42.578125 51.265625 45.40625 46.390625 
z
M 14.796875 27.296875 
Q 14.796875 17.390625 18.875 11.75 
Q 22.953125 6.109375 30.078125 6.109375 
Q 37.203125 6.109375 41.296875 11.75 
Q 45.40625 17.390625 45.40625 27.296875 
Q 45.40625 37.203125 41.296875 42.84375 
Q 37.203125 48.484375 30.078125 48.484375 
Q 22.953125 48.484375 18.875 42.84375 
Q 14.796875 37.203125 14.796875 27.296875 
z
" id="DejaVuSans-100"/>
     </defs>
     <g transform="translate(689.853437 187.500313)scale(0.22 -0.22)">
      <use xlink:href="#DejaVuSans-78"/>
      <use x="74.804688" xlink:href="#DejaVuSans-78"/>
      <use x="149.609375" xlink:href="#DejaVuSans-32"/>
      <use x="181.396484" xlink:href="#DejaVuSans-65"/>
      <use x="249.789062" xlink:href="#DejaVuSans-100"/>
      <use x="313.265625" xlink:href="#DejaVuSans-97"/>
      <use x="374.544922" xlink:href="#DejaVuSans-109"/>
     </g>
    </g>
    <g id="line2d_57">
     <path d="M 628.253437 212.092188 
L 672.253437 212.092188 
" style="fill:none;stroke:#d62728;stroke-linecap:square;stroke-width:1.5;"/>
    </g>
    <g id="line2d_58"/>
    <g id="text_17">
     <!-- NN L-BFGS -->
     <defs>
      <path d="M 9.8125 72.90625 
L 19.671875 72.90625 
L 19.671875 8.296875 
L 55.171875 8.296875 
L 55.171875 0 
L 9.8125 0 
z
" id="DejaVuSans-76"/>
      <path d="M 4.890625 31.390625 
L 31.203125 31.390625 
L 31.203125 23.390625 
L 4.890625 23.390625 
z
" id="DejaVuSans-45"/>
      <path d="M 19.671875 34.8125 
L 19.671875 8.109375 
L 35.5 8.109375 
Q 43.453125 8.109375 47.28125 11.40625 
Q 51.125 14.703125 51.125 21.484375 
Q 51.125 28.328125 47.28125 31.5625 
Q 43.453125 34.8125 35.5 34.8125 
z
M 19.671875 64.796875 
L 19.671875 42.828125 
L 34.28125 42.828125 
Q 41.5 42.828125 45.03125 45.53125 
Q 48.578125 48.25 48.578125 53.8125 
Q 48.578125 59.328125 45.03125 62.0625 
Q 41.5 64.796875 34.28125 64.796875 
z
M 9.8125 72.90625 
L 35.015625 72.90625 
Q 46.296875 72.90625 52.390625 68.21875 
Q 58.5 63.53125 58.5 54.890625 
Q 58.5 48.1875 55.375 44.234375 
Q 52.25 40.28125 46.1875 39.3125 
Q 53.46875 37.75 57.5 32.78125 
Q 61.53125 27.828125 61.53125 20.40625 
Q 61.53125 10.640625 54.890625 5.3125 
Q 48.25 0 35.984375 0 
L 9.8125 0 
z
" id="DejaVuSans-66"/>
      <path d="M 9.8125 72.90625 
L 51.703125 72.90625 
L 51.703125 64.59375 
L 19.671875 64.59375 
L 19.671875 43.109375 
L 48.578125 43.109375 
L 48.578125 34.8125 
L 19.671875 34.8125 
L 19.671875 0 
L 9.8125 0 
z
" id="DejaVuSans-70"/>
      <path d="M 53.515625 70.515625 
L 53.515625 60.890625 
Q 47.90625 63.578125 42.921875 64.890625 
Q 37.9375 66.21875 33.296875 66.21875 
Q 25.25 66.21875 20.875 63.09375 
Q 16.5 59.96875 16.5 54.203125 
Q 16.5 49.359375 19.40625 46.890625 
Q 22.3125 44.4375 30.421875 42.921875 
L 36.375 41.703125 
Q 47.40625 39.59375 52.65625 34.296875 
Q 57.90625 29 57.90625 20.125 
Q 57.90625 9.515625 50.796875 4.046875 
Q 43.703125 -1.421875 29.984375 -1.421875 
Q 24.8125 -1.421875 18.96875 -0.25 
Q 13.140625 0.921875 6.890625 3.21875 
L 6.890625 13.375 
Q 12.890625 10.015625 18.65625 8.296875 
Q 24.421875 6.59375 29.984375 6.59375 
Q 38.421875 6.59375 43.015625 9.90625 
Q 47.609375 13.234375 47.609375 19.390625 
Q 47.609375 24.75 44.3125 27.78125 
Q 41.015625 30.8125 33.5 32.328125 
L 27.484375 33.5 
Q 16.453125 35.6875 11.515625 40.375 
Q 6.59375 45.0625 6.59375 53.421875 
Q 6.59375 63.09375 13.40625 68.65625 
Q 20.21875 74.21875 32.171875 74.21875 
Q 37.3125 74.21875 42.625 73.28125 
Q 47.953125 72.359375 53.515625 70.515625 
z
" id="DejaVuSans-83"/>
     </defs>
     <g transform="translate(689.853437 219.792188)scale(0.22 -0.22)">
      <use xlink:href="#DejaVuSans-78"/>
      <use x="74.804688" xlink:href="#DejaVuSans-78"/>
      <use x="149.609375" xlink:href="#DejaVuSans-32"/>
      <use x="181.396484" xlink:href="#DejaVuSans-76"/>
      <use x="237.09375" xlink:href="#DejaVuSans-45"/>
      <use x="273.130859" xlink:href="#DejaVuSans-66"/>
      <use x="341.734375" xlink:href="#DejaVuSans-70"/>
      <use x="399.253906" xlink:href="#DejaVuSans-71"/>
      <use x="476.744141" xlink:href="#DejaVuSans-83"/>
     </g>
    </g>
    <g id="line2d_59">
     <path d="M 628.253437 244.384063 
L 672.253437 244.384063 
" style="fill:none;stroke:#9467bd;stroke-linecap:square;stroke-width:1.5;"/>
    </g>
    <g id="line2d_60"/>
    <g id="text_18">
     <!-- GD -->
     <g transform="translate(689.853437 252.084063)scale(0.22 -0.22)">
      <use xlink:href="#DejaVuSans-71"/>
      <use x="77.490234" xlink:href="#DejaVuSans-68"/>
     </g>
    </g>
   </g>
  </g>
 </g>
 <defs>
  <clipPath id="pda6af0d51c">
   <rect height="543.6" width="837" x="135" y="86.4"/>
  </clipPath>
 </defs>
</svg>
